# AST/ASF file generated using VICON BodyLanguage
# -----------------------------------------------
:version 1.10
:name VICON
:units
  mass 1.0
  length 0.45
  angle deg
:documentation
   .ast/.asf automatically generated from VICON data using
   VICON BodyBuilder and BodyLanguage model FoxedUp or BRILLIANT.MOD
:root
   order TX TY TZ RX RY RZ
   axis XYZ
   position 0 0 0  
   orientation 0 0 0 
:bonedata
  begin
     id 1 
     name lhipjoint
     direction 0.822369 -0.411937 0.392449 
     length 3.8167 
     axis 0 0 0  XYZ
  end
  begin
     id 2 
     name lfemur
     direction 0.34202 -0.939693 0  
     length 6.16791  
     axis 0 0 20  XYZ
    dof rx ry rz
    limits (-160.0 20.0)
           (-70.0 70.0)
           (-60.0 70.0)
  end
  begin
     id 3 
     name ltibia
     direction 0.34202 -0.939693 0   
     length 7.07101   
     axis 0 0 20   XYZ
    dof rx
    limits (-10.0 170.0)
  end
  begin
     id 4 
     name lfoot
     direction 0.028254 -0.0776273 0.996582   
     length 1.66799   
     axis -90 7.62852e-016 20   XYZ
    dof rx rz
    limits (-45.0 90.0)
           (-70.0 20.0)
  end
  begin
     id 5 
     name ltoes
     direction 1.53483e-011 -4.21688e-011 1   
     length 0.851674   
     axis -90 7.62852e-016 20   XYZ
    dof rx
    limits (-90.0 20.0)
  end
  begin
     id 6 
     name rhipjoint
     direction -0.822466 -0.411836 0.392353   
     length 3.81764  
     axis 0 0 0  XYZ 
  end
  begin
     id 7 
     name rfemur
     direction -0.34202 -0.939693 0   
     length 6.28636   
     axis 0 0 -20   XYZ
    dof rx ry rz
    limits (-160.0 20.0)
           (-70.0 70.0)
           (-70.0 60.0)
  end
  begin
     id 8 
     name rtibia
     direction -0.34202 -0.939693 0   
     length 6.85621   
     axis 0 0 -20   XYZ
    dof rx
    limits (-10.0 170.0)
 end
 begin
     id 9 
     name rfoot
     direction -0.0553036 -0.151945 0.98684   
     length 1.57293  
     axis -90 -7.62852e-016 -20   XYZ
    dof rx rz
    limits (-45.0 90.0)
           (-20.0 70.0)
  end
  begin
     id 10 
     name rtoes
     direction -1.53592e-011 -4.21964e-011 1   
     length 0.802812   
     axis -90 -7.62852e-016 -20   XYZ
    dof rx
    limits (-90.0 20.0)
  end
  begin
     id 11 
     name lowerback
     direction 0.00654913 0.996475 -0.0836396   
     length 1.97212   
     axis 0 0 0   XYZ
    dof rx ry rz
    limits (-20.0 45.0)
           (-30.0 30.0)
           (-30.0 30.0)
  end
  begin
     id 12 
     name upperback
     direction 0.0111875 0.994527 0.103877   
     length 1.89704   
     axis 0 0 0   XYZ
    dof rx ry rz
    limits (-20.0 45.0)
           (-30.0 30.0)
           (-30.0 30.0)
  end
  begin
     id 13 
     name thorax
     direction 0.00473652 0.989004 0.147814   
     length 1.94516   
     axis 0 0 0   XYZ
    dof rx ry rz
    limits (-20.0 45.0)
           (-30.0 30.0)
           (-30.0 30.0)
  end
  begin
     id 14 
     name lowerneck
     direction -0.00925808 0.999011 0.0434791   
     length 1.81771   
     axis 0 0 0   XYZ
    dof rx ry rz
    limits (-20.0 45.0)
           (-30.0 30.0)
           (-30.0 30.0)
  end
  begin
     id 15 
     name upperneck
     direction 0.00451595 0.964412 -0.264365   
     length 1.80434   
     axis 0 0 0   XYZ
    dof rx ry rz
    limits (-20.0 45.0)
           (-30.0 30.0)
           (-30.0 30.0)
  end
  begin
     id 16
     name head
     direction -0.00110849 0.995756 -0.0920241  
     length 1.84006  
     axis 0 0 0   XYZ
    dof rx ry rz
    limits (-20.0 45.0)
           (-30.0 30.0)
           (-30.0 30.0)
  end
  begin
     id 17 
     name lclavicle
     direction 0.921253 0.385213 0.0538957  
     length 3.67415  
     axis 0 0 0   XYZ
    dof ry rz
    limits (-20.0 10.0)
           (0.0 20.0)
  end
  begin
     id 18 
     name lhumerus
     direction 1 -4.48961e-011 6.73441e-028   
     length 4.32712   
     axis 180 -30 -90   XYZ
    dof rx ry rz
    limits (-60.0 90.0)
           (-90.0 90.0)
           (-90.0 90.0)
  end
  begin
     id 19
     name lradius
     direction 1 -4.48985e-011 -9.53507e-028   
     length 3.28587   
     axis 180 -30 -90   XYZ
    dof rx
    limits (-10.0 170.0)
  end
  begin
     id 20
     name lwrist
     direction 1 -4.48951e-011 -4.67472e-027   
     length 1.64293   
     axis 1.65735e-015 90 90   XYZ
    dof ry
    limits (-180.0 0.0)
 end
  begin
     id 21 
     name lhand
     direction 1 -4.48946e-011 -9.34945e-027   
     length 0.433158   
     axis 5.96574e-015 90 90   XYZ
    dof rx rz
    limits (-90.0 90.0)
           (-45.0 45.0)
  end
  begin
     id 22 
     name lfingers
     direction 1 -4.48882e-011 -1.86989e-026   
     length 0.349224   
     axis 1.19315e-014 90 90   XYZ
    dof rx
    limits (0.0 90.0)
  end
  begin
     id 23
     name lthumb
     direction 0.707107 -6.3493e-011 0.707107   
     length 0.501417   
     axis -90 45 2.85299e-015   XYZ
    dof rx rz
    limits (-45.0 45.0)
           (-45.0 45.0)
  end
  begin
     id 24 
     name rclavicle
     direction -0.884378 0.46502 -0.0403866   
     length 3.50218  
     axis 0 0 0   XYZ 
    dof ry rz
    limits (-10.0 20.0)
           (-20.0 0.0)
  end
  begin
     id 25 
     name rhumerus
     direction -1 -4.48964e-011 1.58188e-027  
     length 4.29104   
     axis 180 30 90   XYZ
    dof rx ry rz
    limits (-90.0 60.0)
           (-90.0 90.0)
           (-90.0 90.0)
  end
  begin
     id 26 
     name rradius
     direction -1 -4.48978e-011 -1.9722e-027   
     length 3.2272   
     axis 180 30 90   XYZ
    dof rx
    limits (-10.0 170.0)
  end
  begin
     id 27 
     name rwrist
     direction -1 -4.48969e-011 -4.67472e-027   
     length 1.6136   
     axis 1.65735e-015 -90 -90   XYZ
    dof ry
    limits (-180.0 0.0)
  end
  begin
     id 28
     name rhand
     direction -1 -4.48846e-011 -9.34945e-027   
     length 0.543623   
     axis 5.96574e-015 -90 -90   XYZ
    dof rx rz
    limits (-90.0 90.0)
           (-45.0 45.0)
  end
  begin
     id 29
     name rfingers
     direction -1 -4.49074e-011 -1.86989e-026   
     length 0.438283   
     axis 1.19315e-014 -90 -90   XYZ
    dof rx
    limits (0.0 90.0)
  end
  begin
     id 30
     name rthumb
     direction -0.707107 -6.34834e-011 0.707107   
     length 0.629289   
     axis -90 -45 -2.85299e-015   XYZ
    dof rx rz
    limits (-45.0 45.0)
           (-45.0 45.0)
  end
:hierarchy
  begin
    root lhipjoint rhipjoint lowerback
    lhipjoint lfemur
    lfemur ltibia
    ltibia lfoot
    lfoot ltoes
    rhipjoint rfemur
    rfemur rtibia
    rtibia rfoot
    rfoot rtoes
    lowerback upperback
    upperback thorax
    thorax lowerneck lclavicle rclavicle
    lowerneck upperneck
    upperneck head
    lclavicle lhumerus
    lhumerus lradius
    lradius lwrist
    lwrist lhand lthumb
    lhand lfingers
    rclavicle rhumerus
    rhumerus rradius
    rradius rwrist
    rwrist rhand rthumb
    rhand rfingers
  end

#!OML:ASF H:\GeneralSubjects\Female5\Project 1\Capture day 1\Session 1\Female5.ASF
:FULLY-SPECIFIED
:DEGREES
1
root -24.8753 15.7314 8.11927 -175.389 -9.42037 -175.306
lowerback 7.88352 3.25035 3.74702
upperback -9.04967 4.66018 2.05947
thorax -14.2828 1.69923 -0.673079
lowerneck -11.438 9.61372 7.39897
upperneck 35.4872 9.73079 0.329325
head 14.5291 4.27013 0.156435
rclavicle 6.06293e-014 5.92378e-014
rhumerus -53.1167 11.0035 -70.226
rradius 106.884
rwrist -14.8767
rhand -17.8124 -16.1744
rfingers 7.12502
rthumb 8.45142 -45.9853
lclavicle 6.06293e-014 5.92378e-014
lhumerus -42.331 10.9334 62.4597
lradius 123.408
lwrist 65.1819
lhand -22.6432 35.47
lfingers 7.12502
lthumb 3.7877 65.4161
rfemur 2.23757 17.119 38.9007
rtibia -1.21016
rfoot -34.1652 -26.3845
rtoes 17.2108
lfemur -25.5913 -27.2962 -5.13173
ltibia 22.6867
lfoot -7.51182 1.66847
ltoes -71.3717
2
root -24.8889 15.7385 8.13659 -175.324 -9.53121 -175.409
lowerback 7.8814 3.35425 3.82302
upperback -9.10572 4.79786 1.8999
thorax -14.322 1.74413 -0.918694
lowerneck -11.6889 9.16324 6.77507
upperneck 35.8689 9.04285 0.594621
head 14.6685 3.89522 0.259791
rclavicle 8.99501e-015 -7.7526e-015
rhumerus -52.7008 10.5869 -68.727
rradius 108.793
rwrist -15.403
rhand -18.0918 -16.0972
rfingers 7.12502
rthumb 8.18176 -45.9188
lclavicle 8.99501e-015 -7.7526e-015
lhumerus -41.7704 10.9153 61.2901
lradius 125.259
lwrist 65.1527
lhand -22.9244 35.6934
lfingers 7.12502
lthumb 3.51613 65.6441
rfemur 2.54917 18.4573 38.9549
rtibia -1.65188
rfoot -35.1396 -27.3787
rtoes 18.4998
lfemur -25.569 -27.5086 -5.23727
ltibia 22.3109
lfoot -7.31543 1.9878
ltoes -71.5445
3
root -24.9021 15.7494 8.15395 -175.192 -9.61125 -175.481
lowerback 7.74631 3.40202 3.74032
upperback -9.13213 4.83887 1.90717
thorax -14.2736 1.77176 -0.864967
lowerneck -12.109 8.74559 6.06077
upperneck 36.3429 8.50456 0.631653
head 14.9113 3.53519 0.319285
rclavicle 7.30534e-015 3.06128e-014
rhumerus -51.923 10.208 -67.2652
rradius 110.424
rwrist -15.6055
rhand -18.2289 -16.2756
rfingers 7.12502
rthumb 8.04939 -46.1023
lclavicle 7.30534e-015 3.06128e-014
lhumerus -41.3423 11.271 59.9567
lradius 127.081
lwrist 65.4014
lhand -23.0404 36.2264
lfingers 7.12502
lthumb 3.40408 66.179
rfemur 2.72376 20.257 39.0905
rtibia -1.85007
rfoot -36.8167 -28.3817
rtoes 19.8298
lfemur -25.5556 -27.9647 -5.20088
ltibia 21.8037
lfoot -7.2831 2.61195
ltoes -71.545
4
root -24.9094 15.7613 8.16908 -175.065 -9.72245 -175.375
lowerback 7.67334 3.39126 3.64983
upperback -9.22045 4.80786 2.04393
thorax -14.3557 1.76516 -0.653239
lowerneck -12.2641 8.46013 5.54624
upperneck 36.7356 8.13483 0.631123
head 15.0854 3.26926 0.345773
rclavicle -4.00054e-014 -8.74653e-015
rhumerus -51.3958 9.96127 -65.8471
rradius 112.314
rwrist -14.8645
rhand -17.9006 -16.0274
rfingers 7.12502
rthumb 8.36624 -45.8417
lclavicle -4.00054e-014 -8.74653e-015
lhumerus -41.3562 11.8034 58.2952
lradius 128.976
lwrist 65.9382
lhand -23.0142 36.3694
lfingers 7.12502
lthumb 3.42939 66.3216
rfemur 2.95319 21.0151 39.2199
rtibia -2.57302
rfoot -37.3433 -29.0483
rtoes 19.9153
lfemur -25.6521 -27.8746 -4.93308
ltibia 21.3273
lfoot -7.26259 3.1079
ltoes -71.7387
5
root -24.9195 15.7721 8.18404 -174.934 -9.84019 -175.325
lowerback 7.57062 3.38896 3.60789
upperback -9.29367 4.78864 2.1082
thorax -14.3889 1.75761 -0.549049
lowerneck -12.4031 8.16383 5.01071
upperneck 37.0945 7.73382 0.696077
head 15.2385 2.99754 0.396668
rclavicle -1.36167e-014 5.56597e-015
rhumerus -50.817 9.63921 -64.3413
rradius 114.186
rwrist -14.6549
rhand -17.8073 -15.8712
rfingers 7.12502
rthumb 8.45631 -45.6819
lclavicle -1.36167e-014 5.56597e-015
lhumerus -41.1963 12.3529 56.5611
lradius 130.73
lwrist 66.2913
lhand -23.0048 36.4419
lfingers 7.12502
lthumb 3.43847 66.3939
rfemur 3.19089 22.1903 39.3724
rtibia -3.09318
rfoot -38.386 -29.8323
rtoes 20.6423
lfemur -25.7241 -27.9312 -4.74517
ltibia 20.8618
lfoot -7.21766 3.56797
ltoes -71.8975
6
root -24.9299 15.7829 8.19809 -174.787 -9.96967 -175.259
lowerback 7.43861 3.36055 3.57656
upperback -9.36969 4.73281 2.18383
thorax -14.4079 1.73216 -0.429362
lowerneck -12.4623 7.91827 4.52923
upperneck 37.4081 7.39834 0.761107
head 15.3611 2.76231 0.446435
rclavicle -5.13361e-014 -1.86858e-014
rhumerus -50.2401 9.32198 -62.8309
rradius 116.081
rwrist -14.417
rhand -17.7149 -15.5627
rfingers 7.12502
rthumb 8.54551 -45.3698
lclavicle -5.13361e-014 -1.86858e-014
lhumerus -41.1077 13.0036 54.6653
lradius 132.387
lwrist 66.5828
lhand -22.9501 36.3745
lfingers 7.12502
lthumb 3.49127 66.3256
rfemur 3.39339 23.2405 39.5151
rtibia -3.59331
rfoot -39.3306 -30.5765
rtoes 21.1047
lfemur -25.8124 -27.9316 -4.53416
ltibia 20.3903
lfoot -7.18027 4.00056
ltoes -72.0709
7
root -24.9408 15.7933 8.21172 -174.629 -10.1077 -175.186
lowerback 7.2859 3.31963 3.58316
upperback -9.44627 4.66191 2.24717
thorax -14.4103 1.69498 -0.340261
lowerneck -12.4561 7.71107 4.09637
upperneck 37.6887 7.10174 0.844041
head 15.4588 2.55365 0.499826
rclavicle 2.82274e-014 5.1684e-015
rhumerus -49.6799 8.96995 -61.324
rradius 117.973
rwrist -14.2432
rhand -17.6421 -15.062
rfingers 7.12502
rthumb 8.61573 -44.8662
lclavicle 2.82274e-014 5.1684e-015
lhumerus -41.0486 13.7145 52.6826
lradius 133.895
lwrist 66.7333
lhand -22.9025 36.1786
lfingers 7.12502
lthumb 3.53725 66.129
rfemur 3.53337 24.1273 39.6316
rtibia -4.03164
rfoot -40.1267 -31.2736
rtoes 21.2102
lfemur -25.9108 -27.8925 -4.31227
ltibia 19.9238
lfoot -7.15641 4.40854
ltoes -72.2711
8
root -24.952 15.8031 8.2253 -174.462 -10.2472 -175.122
lowerback 7.12276 3.27583 3.61635
upperback -9.5183 4.58824 2.288
thorax -14.396 1.65302 -0.289942
lowerneck -12.4178 7.53076 3.70386
upperneck 37.9647 6.82757 0.936877
head 15.5523 2.36077 0.553622
rclavicle -4.81556e-014 -1.70955e-014
rhumerus -49.1362 8.57011 -59.8413
rradius 119.815
rwrist -14.2155
rhand -17.6475 -14.395
rfingers 7.12502
rthumb 8.6105 -44.1994
lclavicle -4.81556e-014 -1.70955e-014
lhumerus -40.9898 14.4661 50.685
lradius 135.198
lwrist 66.7062
lhand -22.8721 35.899
lfingers 7.12502
lthumb 3.56658 65.8489
rfemur 3.59564 24.857 39.703
rtibia -4.37324
rfoot -40.8048 -31.8828
rtoes 20.9637
lfemur -26.0039 -27.8887 -4.08121
ltibia 19.4592
lfoot -7.18962 4.83318
ltoes -72.4904
9
root -24.9626 15.8128 8.2393 -174.289 -10.3812 -175.071
lowerback 6.96218 3.23398 3.65947
upperback -9.58495 4.51768 2.30944
thorax -14.374 1.61098 -0.267651
lowerneck -12.3639 7.37401 3.35925
upperneck 38.2541 6.57407 1.01755
head 15.6557 2.17974 0.597491
rclavicle 6.4605e-016 -1.47101e-014
rhumerus -48.6114 8.1198 -58.4348
rradius 121.548
rwrist -14.3954
rhand -17.8105 -13.6372
rfingers 7.12502
rthumb 8.45322 -43.4481
lclavicle 6.4605e-016 -1.47101e-014
lhumerus -40.931 15.2504 48.745
lradius 136.24
lwrist 66.5018
lhand -22.8682 35.6031
lfingers 7.12502
lthumb 3.57037 65.553
rfemur 3.55716 25.3491 39.7074
rtibia -4.61742
rfoot -41.2871 -32.3307
rtoes 20.3469
lfemur -26.0799 -27.9498 -3.83914
ltibia 18.9712
lfoot -7.28131 5.29262
ltoes -72.7057
10
root -24.9716 15.8224 8.25366 -174.116 -10.5052 -175.035
lowerback 6.81605 3.19743 3.6922
upperback -9.64676 4.45345 2.31316
thorax -14.3544 1.57255 -0.261538
lowerneck -12.2878 7.24331 3.07461
upperneck 38.5617 6.34321 1.07732
head 15.7706 2.0114 0.62549
rclavicle 5.397e-014 1.86858e-014
rhumerus -48.1245 7.62685 -57.1536
rradius 123.135
rwrist -14.8521
rhand -18.1907 -12.8609
rfingers 7.12502
rthumb 8.08631 -42.6862
lclavicle 5.397e-014 1.86858e-014
lhumerus -40.8849 16.0419 46.941
lradius 136.942
lwrist 66.0982
lhand -22.855 35.1865
lfingers 7.12502
lthumb 3.58308 65.1361
rfemur 3.42404 25.5794 39.6394
rtibia -4.78593
rfoot -41.5366 -32.5864
rtoes 19.4112
lfemur -26.1264 -28.0972 -3.58572
ltibia 18.4435
lfoot -7.41748 5.7808
ltoes -72.9095
11
root -24.9781 15.832 8.26823 -173.939 -10.6197 -175.018
lowerback 6.69016 3.16824 3.70094
upperback -9.70891 4.39684 2.29847
thorax -14.348 1.53933 -0.265284
lowerneck -12.1882 7.13891 2.85001
upperneck 38.8969 6.13114 1.12056
head 15.9012 1.85385 0.638444
rclavicle 2.46493e-014 -1.59028e-014
rhumerus -47.7141 7.08871 -56.0466
rradius 124.535
rwrist -15.6879
rhand -18.8974 -11.9825
rfingers 7.12502
rthumb 7.4042 -41.833
lclavicle 2.46493e-014 -1.59028e-014
lhumerus -40.8776 16.8034 45.346
lradius 137.251
lwrist 65.463
lhand -22.8122 34.7063
lfingers 7.12502
lthumb 3.62445 64.6553
rfemur 3.21494 25.5975 39.508
rtibia -4.90142
rfoot -41.5946 -32.6533
rtoes 18.3858
lfemur -26.1452 -28.3452 -3.32366
ltibia 17.8637
lfoot -7.56995 6.28755
ltoes -73.0963
12
root -24.982 15.8418 8.28315 -173.752 -10.7266 -175.019
lowerback 6.58362 3.14448 3.68697
upperback -9.77937 4.34454 2.26497
thorax -14.3639 1.50882 -0.279233
lowerneck -12.0554 7.06407 2.67842
upperneck 39.2583 5.93957 1.15832
head 16.0432 1.70812 0.641926
rclavicle -2.43511e-015 5.1684e-015
rhumerus -47.4197 6.48276 -55.1901
rradius 125.67
rwrist -17.05
rhand -19.7793 -11.0319
rfingers 7.12502
rthumb 6.5529 -40.9106
lclavicle -2.43511e-015 5.1684e-015
lhumerus -40.9438 17.4854 44.0294
lradius 137.097
lwrist 64.5456
lhand -22.7208 34.1052
lfingers 7.12502
lthumb 3.71272 64.0526
rfemur 2.93511 25.4288 39.3184
rtibia -4.98479
rfoot -41.4597 -32.5516
rtoes 17.5128
lfemur -26.1529 -28.6852 -3.05287
ltibia 17.2314
lfoot -7.68791 6.80649
ltoes -73.2545
13
root -24.9831 15.8521 8.29822 -173.543 -10.8275 -175.055
lowerback 6.48149 3.11968 3.63072
upperback -9.85872 4.28363 2.20981
thorax -14.3947 1.47702 -0.292588
lowerneck -11.8913 7.01879 2.53964
upperneck 39.641 5.76609 1.21227
head 16.1927 1.57346 0.648318
rclavicle 1.8487e-014 1.59028e-014
rhumerus -47.2992 5.88296 -54.7609
rradius 126.433
rwrist -19.3935
rhand -20.9901 -9.77549
rfingers 7.12502
rthumb 5.38389 -39.6871
lclavicle 1.8487e-014 1.59028e-014
lhumerus -41.1272 18.0586 43.036
lradius 136.423
lwrist 63.4216
lhand -22.5529 33.1157
lfingers 7.12502
lthumb 3.87491 63.0602
rfemur 2.59658 25.1737 39.0704
rtibia -5.03498
rfoot -41.1992 -32.3567
rtoes 16.9408
lfemur -26.1648 -29.0812 -2.8068
ltibia 16.5581
lfoot -7.71083 7.30277
ltoes -73.3775
14
root -24.9811 15.8632 8.31346 -173.303 -10.9279 -175.133
lowerback 6.36526 3.0918 3.52978
upperback -9.94445 4.20932 2.12859
thorax -14.4253 1.44208 -0.307201
lowerneck -11.7211 6.99082 2.40939
upperneck 40.046 5.59456 1.29489
head 16.3543 1.44161 0.665517
rclavicle 5.37216e-014 2.22639e-014
rhumerus -47.4095 5.24889 -54.8582
rradius 126.68
rwrist -23.0008
rhand -22.0287 -8.03621
rfingers 7.12502
rthumb 4.38109 -37.9709
lclavicle 5.37216e-014 2.22639e-014
lhumerus -41.4739 18.5035 42.4183
lradius 135.216
lwrist 62.2938
lhand -22.3759 31.9446
lfingers 7.12502
lthumb 4.04581 61.8859
rfemur 2.23367 24.9348 38.7787
rtibia -5.10803
rfoot -40.8447 -32.1984
rtoes 16.7371
lfemur -26.2093 -29.4799 -2.60237
ltibia 15.8711
lfoot -7.60716 7.74755
ltoes -73.4625
